<svg width="16" height="16" viewBox="0 0 16 16" fill="none" xmlns="http://www.w3.org/2000/svg">
<path d="M8 0C10.1775 0 10.4458 0.0157791 11.2978 0.0473373C12.1341 0.0788955 12.7179 0.220907 13.2387 0.426036C13.7751 0.631164 14.217 0.899408 14.6588 1.34122C15.1006 1.78304 15.3688 2.22485 15.574 2.76134C15.7791 3.28205 15.9211 3.86588 15.9527 4.70217C15.9842 5.55424 16 5.82249 16 8C16 10.1775 15.9842 10.4458 15.9527 11.2978C15.9211 12.1341 15.7791 12.7179 15.574 13.2387C15.3688 13.7751 15.1006 14.217 14.6588 14.6588C14.217 15.1006 13.7751 15.3688 13.2387 15.574C12.7179 15.7791 12.1341 15.9211 11.2978 15.9527C10.4458 15.9842 10.1775 16 8 16C5.82249 16 5.55424 15.9842 4.70217 15.9527C3.86588 15.9211 3.28205 15.7791 2.76134 15.574C2.22485 15.3688 1.78304 15.1006 1.34122 14.6588C0.899408 14.217 0.631164 13.7751 0.426036 13.2387C0.220907 12.7179 0.0788955 12.1341 0.0473373 11.2978C0.0157791 10.4458 0 10.1775 0 8C0 5.82249 0.0157791 5.55424 0.0473373 4.70217C0.0788955 3.86588 0.220907 3.28205 0.426036 2.76134C0.631164 2.22485 0.899408 1.78304 1.34122 1.34122C1.78304 0.899408 2.22485 0.631164 2.76134 0.426036C3.28205 0.220907 3.86588 0.0788955 4.70217 0.0473373C5.55424 0.0157791 5.82249 0 8 0ZM8 1.04142C5.72781 1.04142 5.45957 1.0572 4.57594 1.08876C3.75542 1.12032 3.29783 1.27811 2.99803 1.38856C2.22485 1.70414 1.70414 2.22485 1.38856 2.99803C1.27811 3.29783 1.12032 3.75542 1.08876 4.57594C1.0572 5.45957 1.04142 5.72781 1.04142 8C1.04142 10.2722 1.0572 10.5404 1.08876 11.4241C1.12032 12.2446 1.27811 12.7022 1.38856 13.002C1.70414 13.7751 2.22485 14.2959 2.99803 14.6114C3.29783 14.7219 3.75542 14.8797 4.57594 14.9112C5.45957 14.9428 5.72781 14.9586 8 14.9586C10.2722 14.9586 10.5404 14.9428 11.4241 14.9112C12.2446 14.8797 12.7022 14.7219 13.002 14.6114C13.7751 14.2959 14.2959 13.7751 14.6114 13.002C14.7219 12.7022 14.8797 12.2446 14.9112 11.4241C14.9428 10.5404 14.9586 10.2722 14.9586 8C14.9586 5.72781 14.9428 5.45957 14.9112 4.57594C14.8797 3.75542 14.7219 3.29783 14.6114 2.99803C14.2959 2.22485 13.7751 1.70414 13.002 1.38856C12.7022 1.27811 12.2446 1.12032 11.4241 1.08876C10.5404 1.0572 10.2722 1.04142 8 1.04142ZM8 11.2032C9.76726 11.2032 11.2032 9.76726 11.2032 8C11.2032 6.23274 9.76726 4.79684 8 4.79684C6.23274 4.79684 4.79684 6.23274 4.79684 8C4.79684 9.76726 6.23274 11.2032 8 11.2032ZM8 3.89744C10.2722 3.89744 12.1026 5.72781 12.1026 8C12.1026 10.2722 10.2722 12.1026 8 12.1026C5.72781 12.1026 3.89744 10.2722 3.89744 8C3.89744 5.72781 5.72781 3.89744 8 3.89744ZM13.2387 3.73965C13.2387 4.27613 12.7968 4.68639 12.2604 4.68639C11.7239 4.68639 11.3136 4.27613 11.3136 3.73965C11.3136 3.20316 11.7239 2.76134 12.2604 2.76134C12.7968 2.76134 13.2387 3.20316 13.2387 3.73965Z" fill="white"/>
</svg>
