<svg width="16" height="16" viewBox="0 0 16 16" fill="none" xmlns="http://www.w3.org/2000/svg">
<path d="M3.42857 16H0V4H3.42857V16ZM16 16H12.5714V9.5896C12.5714 7.9192 12.0046 7.0876 10.8811 7.0876C9.99086 7.0876 9.42629 7.5532 9.14286 8.4856V16H5.71429C5.71429 16 5.76 5.2 5.71429 4H8.42057L8.62971 6.4H8.70057C9.40343 5.2 10.5269 4.3864 12.0674 4.3864C13.2389 4.3864 14.1863 4.7284 14.9097 5.5876C15.6377 6.448 16 7.6024 16 9.2236V16Z" fill="white"/>
<path d="M2 4C3.10457 4 4 3.10457 4 2C4 0.895431 3.10457 0 2 0C0.895431 0 0 0.895431 0 2C0 3.10457 0.895431 4 2 4Z" fill="white"/>
</svg>
