<svg width="16" height="12" viewBox="0 0 16 12" fill="none" xmlns="http://www.w3.org/2000/svg">
<path d="M14.1245 1.90097C14.8427 1.49332 15.3183 0.936922 15.5511 0.2293C14.8952 0.557311 14.1914 0.795664 13.4615 0.936922C12.8366 0.315595 12.0456 0 11.0972 0C10.1701 0 9.38703 0.300801 8.74796 0.885967C8.43933 1.16384 8.19532 1.49706 8.03086 1.8652C7.86641 2.23334 7.78498 2.62865 7.79157 3.02692C7.79157 3.28087 7.82623 3.50771 7.89556 3.70002C5.16149 3.61373 2.89851 2.56503 1.11549 0.546538C0.813288 1.04048 0.662185 1.54346 0.662185 2.06369C0.662185 3.13294 1.15016 3.98027 2.12433 4.60242C1.5688 4.55887 1.07905 4.42901 0.662185 4.21615C0.662185 4.97966 0.904839 5.61742 1.39103 6.17875C1.86332 6.72573 2.52891 7.10139 3.27093 7.23978C2.99361 7.30553 2.70118 7.33676 2.40076 7.33676C2.12344 7.33676 1.927 7.31539 1.81057 7.26854C2.015 7.89069 2.40076 8.39531 2.95806 8.78159C3.509 9.16839 4.17916 9.38234 4.87084 9.39223C3.68691 10.2511 2.3332 10.676 0.801733 10.676C0.426643 10.676 0.16088 10.671 0 10.6447C1.50836 11.5504 3.18738 12 5.04505 12C6.94628 12 8.62619 11.5546 10.0883 10.6637C11.5505 9.77769 12.6295 8.68461 13.3228 7.39757C14.0084 6.15222 14.3654 4.77446 14.3645 3.37703V2.9924C15.0036 2.55675 15.5568 2.0227 16 1.4136C15.4015 1.65347 14.7706 1.81741 14.1245 1.90097Z" fill="white"/>
</svg>
