<svg width="12" height="8" viewBox="0 0 12 8" fill="none" xmlns="http://www.w3.org/2000/svg">
<path d="M11.8909 2.05714C11.7818 1.2 11.6727 0.571429 11.3455 0.342857C11.0182 0.0571428 8.18182 0 6 0C3.81818 0 0.981818 0.0571428 0.654545 0.342857C0.327273 0.571429 0.218182 1.2 0.109091 2.05714C2.43837e-08 2.91429 0 3.42857 0 4C0 4.57143 2.43837e-08 5.08571 0.109091 5.94286C0.218182 6.8 0.327273 7.42857 0.654545 7.65714C0.981818 7.94286 3.81818 8 6 8C8.18182 8 11.0182 7.94286 11.3455 7.65714C11.6727 7.42857 11.7818 6.8 11.8909 5.94286C12 5.08571 12 4.57143 12 4C12 3.42857 12 2.91429 11.8909 2.05714ZM4.90909 6.05714V1.94286L8.18182 4L4.90909 6.05714Z" fill="white"/>
</svg>
