<svg width="24" height="12" viewBox="0 0 24 12" fill="none" xmlns="http://www.w3.org/2000/svg">
<path d="M22.3341 0.269039L11.9989 9.83291L1.66374 0.269039C1.47908 0.0978189 1.2312 0.00196289 0.973069 0.00196289C0.714943 0.00196289 0.467057 0.0978189 0.282401 0.269039C0.192991 0.352201 0.12196 0.451463 0.0734686 0.561012C0.0249771 0.670561 0 0.788195 0 0.907023C0 1.02585 0.0249771 1.14348 0.0734686 1.25303C0.12196 1.36258 0.192991 1.46184 0.282401 1.54501L11.2773 11.7213C11.4703 11.9 11.7293 12 11.9989 12C12.2686 12 12.5275 11.9 12.7206 11.7213L23.7155 1.54697C23.8055 1.46375 23.8771 1.36424 23.926 1.25433C23.9748 1.14441 24 1.02632 24 0.907023C24 0.787722 23.9748 0.66963 23.926 0.559717C23.8771 0.449805 23.8055 0.3503 23.7155 0.267075C23.5308 0.0958551 23.2829 0 23.0248 0C22.7667 0 22.5188 0.0958551 22.3341 0.267075V0.269039Z" fill="black"/>
</svg>
