<svg width="28" height="22" viewBox="0 0 28 22" fill="none" xmlns="http://www.w3.org/2000/svg">
<path d="M0 21C0 21.2652 0.105357 21.5196 0.292893 21.7071C0.48043 21.8946 0.734784 22 1 22H27C27.2652 22 27.5196 21.8946 27.7071 21.7071C27.8946 21.5196 28 21.2652 28 21V8.875H0V21ZM4.125 12.375C4.125 12.2424 4.17768 12.1152 4.27145 12.0214C4.36521 11.9277 4.49239 11.875 4.625 11.875H10.375C10.5076 11.875 10.6348 11.9277 10.7286 12.0214C10.8223 12.1152 10.875 12.2424 10.875 12.375V16.375C10.875 16.5076 10.8223 16.6348 10.7286 16.7286C10.6348 16.8223 10.5076 16.875 10.375 16.875H4.625C4.49239 16.875 4.36521 16.8223 4.27145 16.7286C4.17768 16.6348 4.125 16.5076 4.125 16.375V12.375ZM27 0H1C0.734784 0 0.48043 0.105357 0.292893 0.292893C0.105357 0.48043 0 0.734784 0 1V5.125H28V1C28 0.734784 27.8946 0.48043 27.7071 0.292893C27.5196 0.105357 27.2652 0 27 0Z" fill="black"/>
</svg>
