<svg width="15" height="15" viewBox="0 0 15 15" fill="none" xmlns="http://www.w3.org/2000/svg">
<path d="M11.5 13.5078L11.657 13.0326L11.439 12.9605L11.242 13.0796L11.5 13.5078ZM13.5 11.5067L13.079 11.2365L12.95 11.4386L13.026 11.6648L13.5 11.5067ZM14.5 14.4984L14.343 14.9747C14.4312 15.0039 14.5257 15.0079 14.6161 14.9864C14.7064 14.9648 14.7889 14.9185 14.8544 14.8526C14.92 14.7868 14.9658 14.704 14.987 14.6135C15.0081 14.523 15.0036 14.4284 14.974 14.3403L14.5 14.4994V14.4984ZM11.242 13.0796C10.286 13.6549 8.757 13.9991 7.5 13.9991V14.9997C8.885 14.9997 10.606 14.6295 11.758 13.9361L11.242 13.0796ZM7.5 13.9981C3.91 13.9981 1 11.0874 1 7.49835H0C0.000262609 8.48357 0.194464 9.45909 0.571517 10.3692C0.948569 11.2793 1.50109 12.1062 2.19753 12.8027C2.89397 13.4992 3.72069 14.0516 4.63049 14.4284C5.54029 14.8052 6.51535 14.999 7.5 14.9987V13.9981ZM1 7.49835C1.0008 5.77414 1.68603 4.12186 2.90499 2.90313C4.12395 1.68441 5.7768 1.00005 7.5 1.00058V2.67439e-07C5.51158 -0.000530586 3.60438 0.789247 2.19788 2.19562C0.791387 3.60199 0.000795509 5.50877 0 7.49835H1ZM7.5 1.00058C11.09 1.00058 14 3.91027 14 7.49935H15C14.9992 5.50977 14.2086 3.60199 12.8021 2.19562C11.3956 0.789247 9.48842 -0.000530586 7.5 2.67439e-07V1.00058ZM14 7.49935C14 8.83112 13.704 10.2589 13.079 11.2365L13.921 11.7768C14.686 10.5811 15 8.94218 15 7.49935H14ZM11.343 13.9831L14.343 14.9747L14.657 14.0241L11.657 13.0336L11.343 13.9831ZM14.974 14.3403L13.974 11.3486L13.026 11.6648L14.026 14.6575L14.974 14.3403Z" fill="black"/>
</svg>
