<svg width="24" height="15" viewBox="0 0 24 15" fill="none" xmlns="http://www.w3.org/2000/svg">
<path d="M1.64706 0H22.3529C22.7897 0 23.2087 0.117686 23.5176 0.327168C23.8264 0.53665 24 0.820769 24 1.11702V13.883C24.0017 14.0959 23.9128 14.3047 23.744 14.4843C23.5752 14.6639 23.3336 14.8066 23.0482 14.8955C22.8303 14.964 22.5931 14.9997 22.3529 15C21.9649 15.0001 21.5895 14.9065 21.2941 14.7359L21.2835 14.7295L17.5023 12.4819C17.46 12.4589 17.4072 12.4465 17.3529 12.4468H1.64706C1.21023 12.4468 0.791296 12.3291 0.482412 12.1196C0.173529 11.9102 0 11.626 0 11.3298V1.11702C0 0.820769 0.173529 0.53665 0.482412 0.327168C0.791296 0.117686 1.21023 0 1.64706 0ZM1.41176 11.3298C1.41176 11.3721 1.43655 11.4127 1.48068 11.4426C1.5248 11.4725 1.58465 11.4894 1.64706 11.4894H17.3529C17.7404 11.4897 18.1153 11.5826 18.4117 11.7519L18.4223 11.7582L22.2059 14.0059C22.2403 14.0246 22.2818 14.0363 22.3256 14.0398C22.3694 14.0433 22.4138 14.0383 22.4537 14.0255C22.4936 14.0127 22.5273 13.9925 22.5511 13.9673C22.5749 13.9421 22.5877 13.9129 22.5882 13.883V1.11702C22.5882 1.0747 22.5634 1.03411 22.5193 1.00418C22.4752 0.974259 22.4153 0.957447 22.3529 0.957447H1.64706C1.58465 0.957447 1.5248 0.974259 1.48068 1.00418C1.43655 1.03411 1.41176 1.0747 1.41176 1.11702V11.3298ZM7.5294 4.94681C7.5294 5.07377 7.60377 5.19554 7.73615 5.28532C7.86853 5.37509 8.04807 5.42553 8.23529 5.42553H15.7647C15.9519 5.42553 16.1314 5.37509 16.2638 5.28532C16.3962 5.19554 16.4706 5.07377 16.4706 4.94681C16.4706 4.81984 16.3962 4.69808 16.2638 4.6083C16.1314 4.51852 15.9519 4.46809 15.7647 4.46809H8.23529C8.04807 4.46809 7.86853 4.51852 7.73615 4.6083C7.60377 4.69808 7.5294 4.81984 7.5294 4.94681ZM7.5294 7.5C7.5294 7.62697 7.60377 7.74873 7.73615 7.83851C7.86853 7.92829 8.04807 7.97872 8.23529 7.97872H15.7647C15.9519 7.97872 16.1314 7.92829 16.2638 7.83851C16.3962 7.74873 16.4706 7.62697 16.4706 7.5C16.4706 7.37303 16.3962 7.25127 16.2638 7.16149C16.1314 7.07171 15.9519 7.02128 15.7647 7.02128H8.23529C8.04807 7.02128 7.86853 7.07171 7.73615 7.16149C7.60377 7.25127 7.5294 7.37303 7.5294 7.5Z" fill="black"/>
</svg>
