<svg width="24" height="15" viewBox="0 0 24 15" fill="none" xmlns="http://www.w3.org/2000/svg">
<path d="M23.1429 0H0.857143C0.383036 0 0 0.304688 0 0.681818V14.3182C0 14.6953 0.383036 15 0.857143 15H23.1429C23.617 15 24 14.6953 24 14.3182V0.681818C24 0.304688 23.617 0 23.1429 0ZM22.0714 2.3608V13.4659H1.92857V2.3608L1.18929 1.9027L2.24196 0.826705L3.38839 1.53622H20.6143L21.7607 0.826705L22.8134 1.9027L22.0714 2.3608ZM20.6143 1.53409L12 6.8608L3.38571 1.53409L2.23929 0.824574L1.18661 1.90057L1.92589 2.35866L11.0759 8.01776C11.339 8.18037 11.6628 8.26865 11.996 8.26865C12.3292 8.26865 12.6529 8.18037 12.9161 8.01776L22.0714 2.3608L22.8107 1.9027L21.758 0.826705L20.6143 1.53409Z" fill="black"/>
</svg>
