<svg width="13" height="13" viewBox="0 0 13 13" fill="none" xmlns="http://www.w3.org/2000/svg">
<path fill-rule="evenodd" clip-rule="evenodd" d="M0 6.5C0 4.77609 0.68482 3.12279 1.90381 1.90381C3.12279 0.68482 4.77609 0 6.5 0C8.22391 0 9.87721 0.68482 11.0962 1.90381C12.3152 3.12279 13 4.77609 13 6.5C13 8.22391 12.3152 9.87721 11.0962 11.0962C9.87721 12.3152 8.22391 13 6.5 13C4.77609 13 3.12279 12.3152 1.90381 11.0962C0.68482 9.87721 0 8.22391 0 6.5ZM6.5 0.932357C5.02337 0.932357 3.60722 1.51895 2.56308 2.56308C1.51895 3.60722 0.932357 5.02337 0.932357 6.5C0.932357 7.97663 1.51895 9.39278 2.56308 10.4369C3.60722 11.4811 5.02337 12.0676 6.5 12.0676C7.97663 12.0676 9.39278 11.4811 10.4369 10.4369C11.4811 9.39278 12.0676 7.97663 12.0676 6.5C12.0676 5.02337 11.4811 3.60722 10.4369 2.56308C9.39278 1.51895 7.97663 0.932357 6.5 0.932357ZM8.81028 4.1907C8.90228 4.28272 8.95396 4.40751 8.95396 4.53763C8.95396 4.66775 8.90228 4.79255 8.81028 4.88457L7.19387 6.5L8.81028 8.11543C8.90243 8.20757 8.95419 8.33255 8.95419 8.46286C8.95419 8.59317 8.90243 8.71814 8.81028 8.81028C8.71814 8.90243 8.59317 8.95419 8.46286 8.95419C8.33255 8.95419 8.20757 8.90243 8.11543 8.81028L6.5 7.19387L4.88457 8.81028C4.83894 8.85591 4.78478 8.8921 4.72517 8.91679C4.66556 8.94148 4.60167 8.95419 4.53714 8.95419C4.47262 8.95419 4.40873 8.94148 4.34912 8.91679C4.28951 8.8921 4.23534 8.85591 4.18972 8.81028C4.14409 8.76466 4.1079 8.71049 4.08321 8.65088C4.05852 8.59127 4.04581 8.52738 4.04581 8.46286C4.04581 8.39833 4.05852 8.33444 4.08321 8.27483C4.1079 8.21522 4.14409 8.16106 4.18972 8.11543L5.80613 6.5L4.18972 4.88457C4.09757 4.79243 4.04581 4.66745 4.04581 4.53714C4.04581 4.40683 4.09757 4.28186 4.18972 4.18972C4.28186 4.09757 4.40683 4.04581 4.53714 4.04581C4.66745 4.04581 4.79243 4.09757 4.88457 4.18972L6.5 5.80613L8.11543 4.18972C8.16101 4.14402 8.21517 4.10776 8.27478 4.08302C8.3344 4.05829 8.39831 4.04555 8.46286 4.04555C8.5274 4.04555 8.59131 4.05829 8.65093 4.08302C8.71055 4.10776 8.7647 4.145 8.81028 4.1907Z" fill="black"/>
</svg>
